<svg width="5" height="16" viewBox="0 0 5 16" fill="none" xmlns="http://www.w3.org/2000/svg">
<path d="M2.49984 8.83325C2.96007 8.83325 3.33317 8.46016 3.33317 7.99992C3.33317 7.53968 2.96007 7.16659 2.49984 7.16659C2.0396 7.16659 1.6665 7.53968 1.6665 7.99992C1.6665 8.46016 2.0396 8.83325 2.49984 8.83325Z" stroke="#475467" stroke-width="1.66667" strokeLinecap="round" strokeLinejoin="round"/>
<path d="M2.49984 2.99992C2.96007 2.99992 3.33317 2.62682 3.33317 2.16659C3.33317 1.70635 2.96007 1.33325 2.49984 1.33325C2.0396 1.33325 1.6665 1.70635 1.6665 2.16659C1.6665 2.62682 2.0396 2.99992 2.49984 2.99992Z" stroke="#475467" stroke-width="1.66667" strokeLinecap="round" strokeLinejoin="round"/>
<path d="M2.49984 14.6666C2.96007 14.6666 3.33317 14.2935 3.33317 13.8333C3.33317 13.373 2.96007 12.9999 2.49984 12.9999C2.0396 12.9999 1.6665 13.373 1.6665 13.8333C1.6665 14.2935 2.0396 14.6666 2.49984 14.6666Z" stroke="#475467" stroke-width="1.66667" strokeLinecap="round" strokeLinejoin="round"/>
</svg>
